<svg width="36" height="34" viewBox="0 0 36 34" fill="none" xmlns="http://www.w3.org/2000/svg">
<path fill-rule="evenodd" clip-rule="evenodd" d="M6.92321 8.52594V27.6334C6.92321 28.4317 6.92429 28.9471 6.95635 29.3395C6.98708 29.7156 7.03925 29.855 7.07413 29.9235C7.20687 30.184 7.41869 30.3959 7.67922 30.5286C7.74768 30.5635 7.88713 30.6157 8.26328 30.6464C8.65559 30.6784 9.17104 30.6795 9.96933 30.6795H26.0307C26.829 30.6795 27.3444 30.6784 27.7367 30.6464C28.1129 30.6157 28.2523 30.5635 28.3208 30.5286C28.5813 30.3959 28.7931 30.184 28.9259 29.9235C28.9608 29.855 29.0129 29.7156 29.0437 29.3395C29.0757 28.9471 29.0768 28.4317 29.0768 27.6334V8.52594H31.846V27.6868C31.846 28.4167 31.846 29.0463 31.8037 29.565C31.7589 30.1123 31.6602 30.6568 31.3932 31.1807C30.995 31.9623 30.3596 32.5977 29.578 32.996C29.0541 33.2629 28.5096 33.3617 27.9622 33.4064C27.4436 33.4488 26.8139 33.4487 26.0841 33.4487H9.91593C9.18606 33.4487 8.5564 33.4488 8.03778 33.4064C7.49038 33.3617 6.94593 33.2629 6.42203 32.996C5.64044 32.5977 5.00499 31.9623 4.60676 31.1807C4.33981 30.6568 4.24107 30.1123 4.19635 29.565C4.15397 29.0463 4.15399 28.4167 4.15402 27.6868L4.15402 8.52594H6.92321Z" fill="#171717"/>
<path fill-rule="evenodd" clip-rule="evenodd" d="M16.0174 20.9873C16.0321 20.9873 16.0468 20.9873 16.0616 20.9873H19.9384C19.9532 20.9873 19.9679 20.9873 19.9826 20.9873C20.3321 20.9873 20.6724 20.9872 20.9606 21.0108C21.2771 21.0366 21.6506 21.0977 22.0264 21.2891C22.5474 21.5546 22.9711 21.9783 23.2366 22.4993C23.4281 22.8751 23.4891 23.2486 23.5149 23.5651C23.5385 23.8533 23.5384 24.1937 23.5384 24.5431C23.5384 24.5578 23.5384 24.5725 23.5384 24.5873V33.4487H12.4616V24.5873C12.4616 24.5725 12.4616 24.5578 12.4616 24.5431C12.4616 24.1937 12.4615 23.8533 12.4851 23.5651C12.5109 23.2486 12.5719 22.8751 12.7634 22.4993C13.0289 21.9783 13.4526 21.5546 13.9736 21.2891C14.3494 21.0977 14.7229 21.0366 15.0394 21.0108C15.3276 20.9872 15.6679 20.9873 16.0174 20.9873ZM15.2467 23.7724C15.2461 23.7781 15.2456 23.7842 15.2451 23.7906C15.2319 23.9521 15.2308 24.1767 15.2308 24.5873V30.6795H20.7692V24.5873C20.7692 24.1767 20.7681 23.9521 20.7549 23.7906C20.7544 23.7842 20.7539 23.7781 20.7533 23.7724C20.7476 23.7718 20.7415 23.7713 20.7351 23.7708C20.5737 23.7576 20.349 23.7565 19.9384 23.7565H16.0616C15.651 23.7565 15.4263 23.7576 15.2649 23.7708C15.2585 23.7713 15.2524 23.7718 15.2467 23.7724Z" fill="#171717"/>
<path fill-rule="evenodd" clip-rule="evenodd" d="M0.188837 11.9928C0.574143 12.6533 1.42196 12.8764 2.08248 12.4911L18 3.20591L33.9175 12.4911C34.578 12.8764 35.4259 12.6533 35.8112 11.9928C36.1965 11.3323 35.9734 10.4845 35.3128 10.0992L18 0L0.687165 10.0992C0.0266395 10.4845 -0.196469 11.3323 0.188837 11.9928Z" fill="#171717"/>
</svg>
